<svg width="256" height="256" viewBox="0 0 256 256" fill="none" xmlns="http://www.w3.org/2000/svg">
  <rect x="16" y="16" width="224" height="224" rx="52" fill="#181818"/>
  <g transform="translate(68 68) scale(6)">
    <path d="M14.6152 0C14.8192 3.72569e-05 15.0149 0.077756 15.1592 0.21582C15.3033 0.353893 15.3848 0.54111 15.3848 0.736328V1.03223C15.3968 1.03225 15.4085 1.03325 15.4199 1.03516C16.1482 1.08818 16.7632 1.20076 17.3242 1.45898C18.2313 1.87223 18.9794 2.54957 19.4609 3.39355C19.7551 3.91568 19.8809 4.48601 19.9414 5.15332C19.9572 5.32846 19.9682 5.51524 19.9766 5.71387H20V10.9092H14.2861L14.0342 10.916C12.9863 10.972 11.9972 11.375 11.2549 12.0498C10.5127 12.7245 10.0685 13.6236 10.0068 14.5762L10 14.8057V20H4.28613C3.19304 20.0001 2.14104 19.6202 1.3457 18.9385C0.550352 18.2567 0.0709679 17.3241 0.00683594 16.332L0 16.1035V5.71387H0.0234375C0.0318467 5.5151 0.0428291 5.32832 0.0585938 5.15332C0.120129 4.48601 0.244917 3.91568 0.539062 3.39453C1.02043 2.55017 1.7685 1.87249 2.67578 1.45898C3.23683 1.20076 3.85184 1.08818 4.58008 1.03516L4.61426 1.03125V0.736328C4.61427 0.541092 4.69565 0.353897 4.83984 0.21582C4.98409 0.0777384 5.17979 1.74577e-05 5.38379 0C5.58781 0 5.78347 0.0777228 5.92773 0.21582C6.07197 0.353904 6.15331 0.54106 6.15332 0.736328V0.984375C6.50539 0.981758 6.88788 0.980791 7.30078 0.981445H12.6982C13.1111 0.981446 13.4936 0.982412 13.8457 0.984375V0.736328C13.8457 0.541046 13.927 0.353906 14.0713 0.21582C14.2156 0.0777301 14.4112 0 14.6152 0ZM19.8574 12.209C19.7467 12.5178 19.5729 12.805 19.3457 13.0557L19.1631 13.2373L12.5615 19.2393C12.2415 19.5301 11.8525 19.7451 11.4297 19.8711L11.4287 14.8057L11.4355 14.6104C11.4867 13.9921 11.7794 13.4109 12.2607 12.9717C12.7423 12.5325 13.3814 12.2643 14.0615 12.2158L14.2861 12.208L19.8574 12.209ZM7.33301 2.45508C6.89614 2.45508 6.50269 2.45604 6.15332 2.45801V2.7002C6.15328 2.89544 6.07196 3.08264 5.92773 3.2207C5.78347 3.35879 5.5878 3.43652 5.38379 3.43652C5.17979 3.43651 4.98409 3.35878 4.83984 3.2207C4.69565 3.08264 4.6143 2.89542 4.61426 2.7002V2.50977C4.02273 2.55885 3.64424 2.64678 3.34277 2.78613C2.72778 3.06441 2.22036 3.5222 1.89258 4.09277C1.77573 4.30086 1.6911 4.54999 1.63574 4.90918H18.3643C18.3079 4.55001 18.2233 4.30086 18.1064 4.09375C17.7791 3.52296 17.272 3.06484 16.6572 2.78613C16.3547 2.64678 15.9763 2.55886 15.3848 2.50977V2.7002C15.3847 2.8954 15.3034 3.08265 15.1592 3.2207C15.0149 3.35877 14.8192 3.43649 14.6152 3.43652C14.4112 3.43652 14.2155 3.35876 14.0713 3.2207C13.9271 3.08264 13.8457 2.89544 13.8457 2.7002V2.45801C13.4963 2.45539 13.1029 2.45442 12.666 2.45508H7.33301Z" fill="white"/>
  </g>
</svg>
